<?xml version="1.0" standalone="no"?><!DOCTYPE svg PUBLIC "-//W3C//DTD SVG 1.1//EN" "http://www.w3.org/Graphics/SVG/1.1/DTD/svg11.dtd"><svg t="1695074433313" class="icon" viewBox="0 0 1024 1024" version="1.1" xmlns="http://www.w3.org/2000/svg" p-id="8407" width="18" height="18" xmlns:xlink="http://www.w3.org/1999/xlink"><path d="M491.6 427.4c62.1 0 112.6-50.5 112.6-112.6 0-62.1-50.5-112.6-112.6-112.6-62.1 0-112.6 50.5-112.6 112.6 0 62 50.5 112.6 112.6 112.6z m0-187.7c41.4 0 75.1 33.7 75.1 75.1s-33.7 75.1-75.1 75.1-75.1-33.7-75.1-75.1 33.7-75.1 75.1-75.1z" fill="#1195FE" p-id="8408"></path><path d="M464.3 653.5c7.5 7.5 17.4 11.3 27.2 11.3 9.9 0 19.7-3.8 27.2-11.3l127-126.8 17.3-17.3c103.5-103.5 109.9-276 3.1-376.1-49.1-46-111.9-69-174.6-69s-125.5 23-174.5 69c-106.8 100.1-100.4 272.6 3.1 376l144.2 144.2zM342.6 160.6c40.5-37.9 93.4-58.8 148.9-58.8s108.4 20.9 148.9 58.8c41.3 38.7 64.5 92.3 65.4 151.1 1 63.6-24.3 126-69.4 171.1l-17.3 17.3L490.8 627l-88.3-88.4-55.8-55.8c-45.1-45.1-70.4-107.5-69.4-171.1 0.9-58.7 24.1-112.3 65.3-151.1z" fill="#1195FE" p-id="8409"></path><path d="M818.1 612.1H643.2c-15 0-27.1 12.1-27.1 27.1s12.1 27.1 27.1 27.1h174.9c25.4 0 46.1 20.7 46.1 46.1 0 15.1-7.5 29.3-20.2 38-7.7 5.3-16.7 8.1-26 8.1H364.9c-55.3 0-100.4 45-100.4 100.4 0 55.3 45 100.4 100.4 100.4h258.4c15 0 27.1-12.1 27.1-27.1s-12.1-27.1-27.1-27.1H364.9c-25.4 0-46.1-20.7-46.1-46.1 0-25.4 20.7-46.1 46.1-46.1h453.2c20.3 0 39.9-6.1 56.7-17.7 27.3-18.8 43.6-49.7 43.6-82.7 0-55.4-45-100.4-100.3-100.4zM371.1 637.4c0-14.4-11.8-26.2-26.2-26.2H137.2c-14.4 0-26.2 11.8-26.2 26.2 0 14.4 11.8 26.2 26.2 26.2h207.7c14.4 0 26.2-11.8 26.2-26.2z" fill="#1195FE" p-id="8410"></path></svg>