<svg t="1695862498872" class="icon" viewBox="0 0 1024 1024" version="1.1" xmlns="http://www.w3.org/2000/svg" p-id="2703" width="160" height="160"><path d="M319.544889 570.168889v-47.394133h18.915555v47.394133H319.544889z m361.733689 0v-47.394133h18.909866v47.394133h-18.909866zM541.787022 470.641778v-47.399822h18.909867v47.399822h-18.915556z m-73.295644 0v-47.399822h18.915555v47.399822h-18.915555z" fill="#EBEAEA" p-id="2704"></path><path d="M427.770311 182.528a1.649778 1.649778 0 0 1-0.028444 0H364.060444c-0.648533 0-1.297067 0.039822-1.934222 0.113778-5.421511 0.631467-8.6016 3.908267-8.6016 8.265955 0 4.778667 4.181333 8.374044 10.535822 8.374045H427.747556a1.621333 1.621333 0 1 1 0 3.242666H364.060444c-8.049778 0-13.784178-4.932267-13.784177-11.616711 0-6.064356 4.471467-10.672356 11.480177-11.491555a19.945244 19.945244 0 0 1 2.304-0.130845H427.747556c6.354489 0 10.535822-3.601067 10.535822-8.374044 0-4.778667-4.181333-8.374044-10.535822-8.374045H364.060444a1.621333 1.621333 0 1 1 0-3.248355H427.747556c8.049778 0 13.784178 4.932267 13.784177 11.6224 0 6.678756-5.723022 11.605333-13.755733 11.616711z m6.052978 19.581156a1.621333 1.621333 0 0 1 0-3.248356h30.048711a1.621333 1.621333 0 1 1 0 3.242667h-30.048711z m-90.868622-39.566223a1.621333 1.621333 0 1 1 0-3.242666h8.590222a1.621333 1.621333 0 0 1 0 3.242666h-8.590222zM689.4592 256.483556a1.649778 1.649778 0 0 1-0.028444 0h-63.681423c-0.648533 0-1.297067 0.039822-1.934222 0.113777-5.421511 0.631467-8.6016 3.908267-8.6016 8.265956 0 4.778667 4.181333 8.374044 10.535822 8.374044h63.681423a1.621333 1.621333 0 1 1 0 3.242667h-63.681423c-8.049778 0-13.784178-4.932267-13.784177-11.616711 0-6.064356 4.471467-10.672356 11.480177-11.491556a19.945244 19.945244 0 0 1 2.304-0.130844h63.681423c6.354489 0 10.535822-3.601067 10.535822-8.374045 0-4.778667-4.181333-8.374044-10.535822-8.374044h-63.681423a1.621333 1.621333 0 1 1 0-3.248356h63.681423c8.049778 0 13.784178 4.932267 13.784177 11.6224 0 6.678756-5.723022 11.605333-13.755733 11.616712z m6.052978 19.581155a1.621333 1.621333 0 0 1 0-3.248355h30.048711a1.621333 1.621333 0 1 1 0 3.242666h-30.048711z m-90.868622-39.566222a1.621333 1.621333 0 0 1 0-3.242667h8.590222a1.621333 1.621333 0 1 1 0 3.242667h-8.590222z" fill="#FFFFFF" p-id="2705"></path><path d="M564.462933 193.137778c0 19.023644-15.382756 34.440533-34.360889 34.440533-18.972444 0-34.349511-15.416889-34.349511-34.440533 0-19.017956 15.377067-34.434844 34.3552-34.434845 18.972444 0 34.3552 15.416889 34.3552 34.434845" fill="#FFAA00" p-id="2706"></path><path d="M96.978489 631.011556c3.339378 7.8848-2.383644 16.64-10.922667 16.719644l-21.646222 0.193422-21.634844 0.193422c-8.544711 0.079644-14.421333-8.578844-11.224178-16.514844l12.640711-31.351467 8.533333-21.162666c3.999289-9.921422 17.965511-10.040889 22.146845-0.199111l8.9088 21.009066 13.198222 31.118222z m890.077867 3.828622c3.345067 7.8848-2.377956 16.64-10.922667 16.719644l-21.640533 0.193422-21.640534 0.193423c-8.544711 0.079644-14.421333-8.578844-11.218489-16.514845l12.640711-31.351466 8.533334-21.162667c3.999289-9.915733 17.965511-10.040889 22.141155-0.193422l8.9088 21.003377 13.198223 31.118223z" fill="#00AA00" p-id="2707"></path><path d="M66.104889 645.933511l12.288-0.113778c7.185067-0.062578 11.997867-7.429689 9.187555-14.062933l-6.428444-15.160889-15.041422 15.075556v14.262044z m0 3.811556v40.886044h-4.255289v-40.846222l-5.063111 0.045511-21.634845 0.199111c-9.904356 0.085333-16.719644-9.944178-13.010488-19.143111l12.640711-31.345778 8.533333-21.162666c4.636444-11.497244 20.832711-11.645156 25.673956-0.227556l8.9088 20.997689 4.363377 10.296889 10.040889-10.057956 3.015111 3.009422-11.264 11.286756 7.037156 16.583111c3.874133 9.136356-2.753422 19.285333-12.663467 19.370667l-12.316444 0.113778z m-4.255289-3.777423v-2.878577l-15.735467-15.7696 3.015111-3.009423 12.720356 12.743112v-21.919289h4.260978v10.501689l13.243733-13.272178-4.972089-11.719111-8.9088-21.003378c-3.515733-8.283022-15.2576-8.180622-18.619733 0.164978l-8.533333 21.162666-12.635023 31.345778c-2.696533 6.678756 2.247111 13.960533 9.432178 13.892267l21.634845-0.193422 5.097244-0.045512zM956.188444 649.762133l12.288-0.113777c7.179378-0.062578 11.992178-7.429689 9.181867-14.062934l-6.428444-15.1552-15.041423 15.075556v14.256355z m0 3.811556v40.886044h-4.260977v-40.846222l-5.063111 0.0512-21.634845 0.193422c-9.904356 0.085333-16.719644-9.938489-13.0048-19.143111l12.635022-31.345778 8.533334-21.162666c4.636444-11.497244 20.832711-11.645156 25.673955-0.227556l8.9088 21.003378 4.369067 10.296889 10.0352-10.069333 3.015111 3.015111-11.258311 11.286755 7.037155 16.583111c3.868444 9.136356-2.759111 19.285333-12.663466 19.370667l-12.322134 0.113778z m-4.260977-3.777422v-2.872889l-15.729778-15.7696 3.015111-3.015111 12.714667 12.743111v-21.919289h4.266666v10.507378l13.238045-13.277867-4.972089-11.719111-8.9088-21.003378c-3.510044-8.283022-15.251911-8.174933-18.614045 0.164978l-8.533333 21.162667-12.640711 31.345777c-2.690844 6.678756 2.2528 13.960533 9.432178 13.892267l21.640533-0.193422 5.091556-0.045511z" fill="#FFFFFF" p-id="2708"></path><path d="M855.051378 560.696889H176.503467c-26.652444 0-48.469333 21.856711-48.469334 48.577422v84.132978h342.823823v-52.138667c0-24.763733 20.212622-45.027556 44.919466-45.027555s44.919467 20.263822 44.919467 45.027555v52.138667h342.818133v-84.132978c0-26.720711-21.8112-48.583111-48.469333-48.583111" fill="#F06A5A" p-id="2709"></path><path d="M761.662578 534.624711h-494.136889l58.891378-63.988622h378.919822l56.32 63.988622z m-56.746667-97.166222H326.633244l45.084445-80.577422h290.076444l43.121778 80.577422z" fill="#FF5500" p-id="2710"></path><path d="M219.044978 462.830933l0.022755 63.038578-54.499555-31.5392 54.4768-31.499378z m597.845333 0l0.022756 63.038578-54.499556-31.5392 54.4768-31.499378z" fill="#AA0000" p-id="2711"></path><path d="M217.691022 516.295111v-52.832711h0.585956v-4.926578l-50.215822 29.041778 49.629866 28.717511z m0 3.288178l-55.307378-32.011378 58.737778-33.962667v9.853156h0.608711v97.302756h-4.039111v-41.187556zM815.530667 516.295111v-52.832711h0.591644v-4.926578l-50.215822 29.041778 49.624178 28.717511z m0 3.288178l-55.307378-32.011378 58.737778-33.962667 0.005689 9.853156h0.608711v97.302756h-4.039111v-41.187556z" fill="#FFFFFF" p-id="2712"></path><path d="M203.485867 619.918222v-28.7232h204.373333v28.717511H203.491556z m435.484444 0v-28.7232h204.379022v28.717511H638.976z" fill="#FCE6E8" p-id="2713"></path><path d="M484.920889 599.768178h40.607289v-56.2176H484.920889z" fill="#FFFFFF" p-id="2714"></path><path d="M516.5056 568.433778a10.6496 10.6496 0 0 1-10.638222 10.655289c-5.870933 0-10.638222-4.772978-10.638222-10.660978 0-5.888 4.767289-10.660978 10.638222-10.660978 5.876622 0 10.638222 4.772978 10.638222 10.660978" fill="#F9E2C7" p-id="2715"></path><path d="M523.52 597.828267a17.743644 17.743644 0 0 0-17.652622-16.156445 17.743644 17.743644 0 0 0-17.652622 16.156445h35.305244z" fill="#A8D5DD" p-id="2716"></path><path d="M789.845333 694.317511c8.942933 0 16.258844 6.508089 16.258845 14.466845 0 7.958756-7.315911 14.472533-16.253156 14.472533h-176.469333c-1.627022 0-3.185778-0.227556-4.670578-0.625778-8.209067 0.711111-14.683022 6.917689-14.683022 14.404267 0 7.958756 7.310222 14.466844 16.253155 14.466844h77.681778c6.5536 1.871644 11.326578 7.350044 11.326578 13.778489 0 6.894933-5.489778 12.6976-12.771556 14.125511 0.483556 0.096711 0.955733 0.210489 1.422223 0.341334H540.6208c-8.942933 0-16.253156 6.513778-16.253156 14.472533s7.310222 14.466844 16.253156 14.466844h149.265067c5.535289 2.309689 9.403733 7.310222 9.403733 13.090134 0 6.439822-4.790044 11.918222-11.349333 13.784177h-39.7312c-8.942933 0-16.258844 6.508089-16.258845 14.466845 0 7.958756 7.315911 14.466844 16.258845 14.466844h39.7312c6.559289 1.865956 11.349333 7.344356 11.349333 13.778489 0 7.964444-7.310222 14.472533-16.253156 14.472534H350.987378c-8.937244 0-16.253156-6.513778-16.253156-14.472534 0-6.434133 4.790044-11.912533 11.349334-13.778489h117.134222c8.942933 0 16.253156-6.508089 16.253155-14.466844 0-7.958756-7.310222-14.466844-16.253155-14.466845h-117.134222c-6.559289-1.865956-11.349333-7.344356-11.349334-13.784177 0-5.779911 3.868444-10.780444 9.403734-13.084445h11.491555c8.942933 0 16.258844-6.513778 16.258845-14.472533s-7.315911-14.466844-16.253156-14.466845h-9.551644c0.466489-0.136533 0.944356-0.250311 1.422222-0.347022-7.281778-1.427911-12.771556-7.224889-12.771556-14.125511 0-6.428444 4.778667-11.906844 11.326578-13.778489h79.234844c8.937244 0 16.253156-6.508089 16.253156-14.466844 0-7.964444-7.315911-14.472533-16.253156-14.472534H346.083556c0.466489-0.130844 0.944356-0.250311 1.422222-0.341333-7.281778-1.427911-12.771556-7.230578-12.771556-14.125511 0-6.434133 4.790044-11.918222 11.349334-13.778489h32.768c1.718044 0 3.373511-0.244622 4.932266-0.688355h175.126756c1.558756 0.443733 3.214222 0.682667 4.932266 0.682666h226.008178z m-475.153066 28.245333H217.782044a3.805867 3.805867 0 0 1-3.794488-3.794488v-21.344712c0-2.087822 1.706667-3.794489 3.794488-3.794488h96.910223c2.082133 0 3.7888 1.706667 3.7888 3.794488v21.344712c0 2.087822-1.706667 3.794489-3.7888 3.794488z m4.642133 112.9984h-70.599111a3.805867 3.805867 0 0 1-3.783111-3.800177v-21.339023c0-2.093511 1.706667-3.800178 3.7888-3.800177h70.599111c2.076444 0 3.783111 1.706667 3.783111 3.800177v21.333334c0 2.093511-1.706667 3.805867-3.7888 3.805866z m448.9216 57.184712h-44.276622a3.805867 3.805867 0 0 1-3.7888-3.800178v-21.339022c0-2.087822 1.706667-3.800178 3.7888-3.800178h44.276622c2.087822 0 3.794489 1.706667 3.794489 3.800178v21.339022c0 2.087822-1.706667 3.800178-3.794489 3.800178z" fill="#F9B495" p-id="2717"></path><path d="M473.611378 203.758933a1.621333 1.621333 0 0 1 0-3.242666h5.723022a1.621333 1.621333 0 1 1 0 3.242666h-5.723022z m81.038222-12.259555c0-18.119111-14.654578-32.802133-32.722489-32.802134-18.0736 0-32.722489 14.683022-32.722489 32.802134s14.648889 32.802133 32.722489 32.802133c18.067911 0 32.722489-14.683022 32.722489-32.802133z m3.271111 0c0 19.922489-16.116622 36.073244-35.9936 36.073244-19.876978 0-35.9936-16.156444-35.9936-36.073244 0-19.922489 16.116622-36.073244 35.9936-36.073245 19.876978 0 35.9936 16.150756 35.9936 36.073245z m-42.990933-48.412445l-2.963911 1.376711-5.944889-12.782933 2.958222-1.3824 5.950578 12.788622z m41.130666 4.664889l-3.037866-1.211733 5.216711-13.1072 3.037867 1.211733-5.211023 13.101511z m24.809245 33.217422l-1.200356-3.043555 13.084445-5.176889 1.206044 3.043556-13.090133 5.176888z m-7.128178 40.874667l1.393778-2.958222 12.731733 6.007467-1.393778 2.958222-12.731733-6.007467z m-29.673244 17.897245l3.111822-1.012623 4.369067 13.408711-3.111823 1.012623-4.369066-13.408711z m-33.729423-1.393778l2.872889 1.564444-6.747022 12.384711-2.872889-1.570133 6.747022-12.379022z m-25.543111-22.852267l0.824889 3.163022-13.613511 3.561245-0.830578-3.163022 13.6192-3.561245z m-4.374755-39.719822l-1.7408 2.770489-11.918222-7.497956 1.7408-2.770489 11.918222 7.497956z" fill="#FFFFFF" p-id="2718"></path><path d="M906.416356 688.861867h94.509511v5.723022H22.983111v-5.723022h81.140622v-81.504711c0-28.336356 23.722667-51.484444 52.6848-51.484445h144.008534V535.608889H243.564089l65.962667-69.791289H453.802667V438.442667H305.993956l49.635555-86.380089h301.340445l47.473777 86.380089h-150.129777v27.374933h146.944l63.095466 69.791289h-66.770489v20.263822h156.154311c28.967822 0 52.679111 23.148089 52.679112 51.484445v81.504711z m-357.910756 0v-49.5104c0-23.1424-19.444622-42.120533-43.235556-42.120534-23.785244 0-43.235556 18.978133-43.235555 42.120534v49.5104h86.471111zM320.244622 561.681067V529.806222h357.910756v31.874845H320.244622z m352.108089-5.802667V535.608889H326.052978v20.263822h346.299733z m-199.122489-84.252444V432.64h61.656178v38.985956H473.230222z m55.853511-5.802667V438.442667h-50.050844v27.374933h50.050844z m371.529956 141.539555c0-25.105067-21.088711-45.681778-46.876445-45.681777H691.768889V529.806222h59.505778l-52.605156-58.180266H548.5056V432.64h146.1248l-41.096533-74.769067H358.985956L316.023467 432.64h143.587555v38.985956H312.029867L257.035378 529.806222H306.631111v31.874845H156.808533c-25.793422 0-46.876444 20.576711-46.876444 45.681777v81.225956h346.299733v-49.237333c0-26.379378 22.072889-47.928889 49.038222-47.928889 26.965333 0 49.038222 21.549511 49.038223 47.928889v49.237333h346.305422v-81.231644z" fill="#FFFFFF" p-id="2719"></path></svg>