<svg t="1695862498872" class="icon" viewBox="0 0 1024 1024" version="1.1" xmlns="http://www.w3.org/2000/svg" p-id="2703" width="160" height="160"><path d="M319.544889 570.168889v-47.394133h18.915555v47.394133H319.544889z m361.733689 0v-47.394133h18.909866v47.394133h-18.909866zM541.787022 470.641778v-47.399822h18.909867v47.399822h-18.915556z m-73.295644 0v-47.399822h18.915555v47.399822h-18.915555z" fill="#EBEAEA" p-id="2704"></path><path d="M427.770311 182.528a1.649778 1.649778 0 0 1-0.028444 0H364.060444c-0.648533 0-1.297067 0.039822-1.934222 0.113778-5.421511 0.631467-8.6016 3.908267-8.6016 8.265955 0 4.778667 4.181333 8.374044 10.535822 8.374045H427.747556a1.621333 1.621333 0 1 1 0 3.242666H364.060444c-8.049778 0-13.784178-4.932267-13.784177-11.616711 0-6.064356 4.471467-10.672356 11.480177-11.491555a19.945244 19.945244 0 0 1 2.304-0.130845H427.747556c6.354489 0 10.535822-3.601067 10.535822-8.374044 0-4.778667-4.181333-8.374044-10.535822-8.374045H364.060444a1.621333 1.621333 0 1 1 0-3.248355H427.747556c8.049778 0 13.784178 4.932267 13.784177 11.6224 0 6.678756-5.723022 11.605333-13.755733 11.616711z m6.052978 19.581156a1.621333 1.621333 0 0 1 0-3.248356h30.048711a1.621333 1.621333 0 1 1 0 3.242667h-30.048711z m-90.868622-39.566223a1.621333 1.621333 0 1 1 0-3.242666h8.590222a1.621333 1.621333 0 0 1 0 3.242666h-8.590222zM689.4592 256.483556a1.649778 1.649778 0 0 1-0.028444 0h-63.681423c-0.648533 0-1.297067 0.039822-1.934222 0.113777-5.421511 0.631467-8.6016 3.908267-8.6016 8.265956 0 4.778667 4.181333 8.374044 10.535822 8.374044h63.681423a1.621333 1.621333 0 1 1 0 3.242667h-63.681423c-8.049778 0-13.784178-4.932267-13.784177-11.616711 0-6.064356 4.471467-10.672356 11.480177-11.491556a19.945244 19.945244 0 0 1 2.304-0.130844h63.681423c6.354489 0 10.535822-3.601067 10.535822-8.374045 0-4.778667-4.181333-8.374044-10.535822-8.374044h-63.681423a1.621333 1.621333 0 1 1 0-3.248356h63.681423c8.049778 0 13.784178 4.932267 13.784177 11.6224 0 6.678756-5.723022 11.605333-13.755733 11.616712z m6.052978 19.581155a1.621333 1.621333 0 0 1 0-3.248355h30.048711a1.621333 1.621333 0 1 1 0 3.242666h-30.048711z m-90.868622-39.566222a1.621333 1.621333 0 0 1 0-3.242667h8.590222a1.621333 1.621333 0 1 1 0 3.242667h-8.590222z" fill="#FFFFFF" p-id="2705"></path><path d="M564.462933 193.137778c0 19.023644-15.382756 34.440533-34.360889 34.440533-18.972444 0-34.349511-15.416889-34.349511-34.440533 0-19.017956 15.377067-34.434844 34.3552-34.434845 18.972444 0 34.3552 15.416889 34.3552 34.434845" fill="#FFAA00" p-id="2706"></path><path d="M96.978489 631.011556c3.339378 7.8848-2.383644 16.64-10.922667 16.719644l-21.646222 0.193422-21.634844 0.193422c-8.544711 0.079644-14.421333-8.578844-11.224178-16.514844l12.640711-31.351467 8.533333-21.162666c3.999289-9.921422 17.965511-10.040889 22.146845-0.199111l8.9088 21.009066 13.198222 31.118222z m890.077867 3.828622c3.345067 7.8848-2.377956 16.64-10.922667 16.719644l-21.640533 0.193422-21.640534 0.193423c-8.544711 0.079644-14.421333-8.578844-11.218489-16.514845l12.640711-31.351466 8.533334-21.162667c3.999289-9.915733 17.965511-10.040889 22.141155-0.193422l8.9088 21.003377 13.198223 31.118223z" fill="#00AA00" p-id="2707"></path><path d="M66.104889 645.933511l12.288-0.113778c7.185067-0.062578 11.997867-7.429689 9.187555-14.062933l-6.428444-15.160889-15.041422 15.075556v14.262044z m0 3.811556v40.886044h-4.255289v-40.846222l-5.063111 0.045511-21.634845 0.199111c-9.904356 0.085333-16.719644-9.944178-13.010488-19.143111l12.640711-31.345778 8.533333-21.162666c4.636444-11.497244 20.832711-11.645156 25.673956-0.227556l8.9088 20.997689 4.363377 10.296889 10.040889-10.057956 3.015111 3.009422-11.264 11.286756 7.037156 16.583111c3.874133 9.136356-2.753422 19.285333-12.663467 19.370667l-12.316444 0.113778z m-4.255289-3.777423v-2.878577l-15.735467-15.7696 3.015111-3.009423 12.720356 12.743112v-21.919289h4.260978v10.501689l13.243733-13.272178-4.972089-11.719111-8.9088-21.003378c-3.515733-8.283022-15.2576-8.180622-18.619733 0.164978l-8.533333 21.162666-12.635023 31.345778c-2.696533 6.678756 2.247111 13.960533 9.432178 13.892267l21.634845-0.193422 5.097244-0.045512zM956.188444 649.762133l12.288-0.113777c7.179378-0.062578 11.992178-7.429689 9.181867-14.062934l-6.428444-15.1552-15.041423 15.075556v14.256355z m0 3.811556v40.886044h-4.260977v-40.846222l-5.063111 0.0512-21.634845 0.193422c-9.904356 0.085333-16.719644-9.938489-13.0048-19.143111l12.635022-31.345778 8.533334-21.162666c4.636444-11.497244 20.832711-11.645156 25.673955-0.227556l8.9088 21.003378 4.369067 10.296889 10.0352-10.069333 3.015111 3.015111-11.258311 11.286755 7.037155 16.583111c3.868444 9.136356-2.759111 19.285333-12.663466 19.370667l-12.322134 0.113778z m-4.260977-3.777422v-2.872889l-15.729778-15.7696 3.015111-3.015111 12.714667 12.743111v-21.919289h4.266666v10.507378l13.238045-13.277867-4.972089-11.719111-8.9088-21.003378c-3.510044-8.283022-15.251911-8.174933-18.614045 0.164978l-8.533333 21.162667-12.640711 31.345777c-2.690844 6.678756 2.2528 13.960533 9.432178 13.892267l21.640533-0.193422 5.091556-0.045511z" fill="#FFFFFF" p-id="2708"></path><path d="M855.051378 560.696889H176.503467c-26.652444 0-48.469333 21.856711-48.469334 48.577422v84.132978h342.823823v-52.138667c0-24.763733 20.212622-45.027556 44.919466-45.027555s44.919467 20.263822 44.919467 45.027555v52.138667h342.818133v-84.132978c0-26.720711-21.8112-48.583111-48.469333-48.583111" fill="#F06A5A" p-id="2709"></path><path d="M761.662578 534.624711h-494.136889l58.891378-63.988622h378.919822l56.32 63.988622z m-56.746667-97.166222H326.633244l45.084445-80.577422h290.076444l43.121778 80.577422z" fill="#FF5500" p-id="2710"></path><path d="M219.044978 462.830933l0.022755 63.038578-54.499555-31.5392 54.4768-31.499378z m597.845333 0l0.022756 63.038578-54.499556-31.5392 54.4768-31.499378z" fill="#AA0000" p-id="2711"></path><path d="M217.691022 516.295111v-52.832711h0.585956v-4.926578l-50.215822 29.041778 49.629866 28.717511z m0 3.288178l-55.307378-32.011378 58.737778-33.962667v9.853156h0.608711v97.302756h-4.039111v-41.187556zM815.530667 516.295111v-52.832711h0.591644v-4.926578l-50.215822 29.041778 49.624178 28.717511z m0 3.288178l-55.307378-32.011378 58.737778-33.962667 0.005689 9.853156h0.608711v97.302756h-4.039111v-41.187556z" fill="#FFFFFF" p-id="2712"></path><path d="M203.485867 619.918222v-28.7232h204.373333v28.717511H203.491556z m435.484444 0v-28.7232h204.379022v28.717511H638.976z" fill="#FCE6E8" p-id="2713"></path><path d="M484.920889 599.768178h40.607289v-56.2176H484.920889z" fill="#FFFFFF" p-id="2714"></path><path d="M516.5056 568.433778a10.6496 10.6496 0 0 1-10.638222 10.655289c-5.870933 0-10.638222-4.772978-10.638222-10.660978 0-5.888 4.767289-10.660978 10.638222-10.660978 5.876622 0 10.638222 4.772978 10.638222 10.660978" fill="#F9E2C7" p-id="2715"></path><path d="M523.52 597.828267a17.743644 17.743644 0 0 0-17.652622-16.156445 17.743644 17.743644 0 0 0-17.652622 16.156445h35.305244z" fill="#A8D5DD" p-id="2716"></path><path d="M473.611378 203.758933a1.621333 1.621333 0 0 1 0-3.242666h5.723022a1.621333 1.621333 0 1 1 0 3.242666h-5.723022z m81.038222-12.259555c0-18.119111-14.654578-32.802133-32.722489-32.802134-18.0736 0-32.722489 14.683022-32.722489 32.802134s14.648889 32.802133 32.722489 32.802133c18.067911 0 32.722489-14.683022 32.722489-32.802133z m3.271111 0c0 19.922489-16.116622 36.073244-35.9936 36.073244-19.876978 0-35.9936-16.156444-35.9936-36.073244 0-19.922489 16.116622-36.073244 35.9936-36.073245 19.876978 0 35.9936 16.150756 35.9936 36.073245z m-42.990933-48.412445l-2.963911 1.376711-5.944889-12.782933 2.958222-1.3824 5.950578 12.788622z m41.130666 4.664889l-3.037866-1.211733 5.216711-13.1072 3.037867 1.211733-5.211023 13.101511z m24.809245 33.217422l-1.200356-3.043555 13.084445-5.176889 1.206044 3.043556-13.090133 5.176888z m-7.128178 40.874667l1.393778-2.958222 12.731733 6.007467-1.393778 2.958222-12.731733-6.007467z m-29.673244 17.897245l3.111822-1.012623 4.369067 13.408711-3.111823 1.012623-4.369066-13.408711z m-33.729423-1.393778l2.872889 1.564444-6.747022 12.384711-2.872889-1.570133 6.747022-12.379022z m-25.543111-22.852267l0.824889 3.163022-13.613511 3.561245-0.830578-3.163022 13.6192-3.561245z m-4.374755-39.719822l-1.7408 2.770489-11.918222-7.497956 1.7408-2.770489 11.918222 7.497956z" fill="#FFFFFF" p-id="2718"></path></svg>