<?xml version="1.0" standalone="no"?><!DOCTYPE svg PUBLIC "-//W3C//DTD SVG 1.1//EN" "http://www.w3.org/Graphics/SVG/1.1/DTD/svg11.dtd"><svg t="1694906415962" class="icon" viewBox="0 0 1024 1024" version="1.1" xmlns="http://www.w3.org/2000/svg" p-id="13163" xmlns:xlink="http://www.w3.org/1999/xlink" width="12" height="12"><path d="M959.3 512.6h-92.4c4.9-26.3 7.3-53.5 7.3-81.4 0-117.4-31.1-193.4-92.5-225.9-95.1-50.3-229.2 23.8-269.3 48.6-39.2-25.5-169.5-101.4-263.2-53.3-61.9 31.8-93.3 109.4-93.3 230.5 0 27.2 3.6 54.4 10.7 81.4H63.3v40h116.3c8.5 21.6 19.3 43.1 32.4 64.4 29.3 47.7 70 94.3 120.9 138.6 86.1 74.8 171 116.8 174.5 118.5l7.1 3.5 7.5-2.3c3.6-1.1 89.1-27.5 175.5-95 51.1-39.9 91.9-85.9 121.2-136.7 16.6-28.8 29.5-59.2 38.7-90.9h101.9v-40z m-763.5-81.4c0-104.9 24.1-170.5 71.6-194.9 15.7-8.1 33.3-11.3 51.4-11.3 33.2 0 67.9 10.8 95.4 22.2 48.2 20 85.5 46.4 86.3 47l11.4 8.1 11.6-7.9c0.4-0.3 38.5-26 88.2-45.4 79.6-31 126.3-21.6 151.5-8.3 47.3 25 71.2 89.1 71.2 190.5 0 28-2.7 55.2-8.1 81.4H662l-58.6-178.9-75.8 257.7-29-95.3-52.8 70.7-51.9-246.2-95.2 192h-90.6c-8.2-27.1-12.3-54.3-12.3-81.4z m588.7 191.7c-26.6 46.3-63.8 88.4-110.5 125-66.5 52.2-134 78.7-156.1 86.5-21.9-11.6-90.5-49.9-158.7-109.1-47.9-41.6-85.9-85.1-113.1-129.3-8.9-14.4-16.5-28.9-23.1-43.4h100.4l55-110.9 46.3 219.8 58.5-78.2 45 147.6 77.2-262.4 27.6 84.2h182.6c-7.9 24.3-18.3 47.8-31.1 70.2z" fill="#1296db" p-id="13164"></path></svg>