<?xml version="1.0" standalone="no"?><!DOCTYPE svg PUBLIC "-//W3C//DTD SVG 1.1//EN" "http://www.w3.org/Graphics/SVG/1.1/DTD/svg11.dtd"><svg t="1694906657363" class="icon" viewBox="0 0 1024 1024" version="1.1" xmlns="http://www.w3.org/2000/svg" p-id="25118" xmlns:xlink="http://www.w3.org/1999/xlink" width="12" height="12"><path d="M802.203498 788.950659 221.268476 788.950659c-88.635713 0-160.744008-72.045873-160.744008-160.600745 0-73.064063 49.856501-136.523373 118.839619-155.092287-0.101307-1.938142-0.152473-3.876284-0.152473-5.815449 0-61.411675 49.959855-111.373577 111.369483-111.373577 22.951735 0 44.898583 6.965645 63.280232 19.682271 41.006949-84.783988 127.381156-139.958612 223.318158-139.958612 132.191718 0 240.563938 103.901395 247.690242 234.290047 34.726919 5.040806 66.73696 21.230534 91.63707 46.647413 29.502941 30.116925 45.753043 69.894883 45.753043 112.007003 0 42.73429-16.84976 83.007529-47.444569 113.40177C884.431268 772.326027 844.437391 788.950659 802.203498 788.950659zM290.583145 396.086014c-39.344077 0-71.352071 32.010041-71.352071 71.356165 0 5.676279 0.683569 11.367909 2.034333 16.917298 1.338485 5.502317 0.283456 11.313673-2.905166 15.993253-3.186576 4.679579-8.208962 7.79043-13.818727 8.558933-59.288315 8.128121-103.997586 59.47558-103.997586 119.438253 0 66.490344 54.157457 120.583333 120.725572 120.583333l580.935022 0c31.594579 0 61.572334-12.495592 84.408435-35.183314 22.977317-22.826891 35.631522-53.017494 35.631522-85.012186 0-31.576159-12.1886-61.410652-34.32169-84.002183-22.086018-22.545482-51.620681-35.429931-83.162048-36.280298-10.999518-0.294712-19.694551-9.41851-19.465331-20.419052 0.013303-0.590448-0.010233-1.164522-0.025583-1.740644-0.021489-0.838088-0.040932-1.680269-0.040932-2.543939 0-114.65839-93.328595-207.940936-208.046337-207.940936-88.877213 0-167.965479 56.446593-196.797132 140.463102-2.360767 6.874571-8.259104 11.927657-15.415085 13.202697-7.147794 1.27197-14.435781-1.426489-19.026332-7.063883C332.317665 405.682579 312.13909 396.086014 290.583145 396.086014z" fill="#272636" p-id="25119"></path></svg>