<?xml version="1.0" standalone="no"?><!DOCTYPE svg PUBLIC "-//W3C//DTD SVG 1.1//EN" "http://www.w3.org/Graphics/SVG/1.1/DTD/svg11.dtd"><svg t="1694906469700" class="icon" viewBox="0 0 1024 1024" version="1.1" xmlns="http://www.w3.org/2000/svg" p-id="14450" width="12" height="12" xmlns:xlink="http://www.w3.org/1999/xlink"><path d="M663.893333 651.093333c-2.389333 0-4.949333-0.341333-7.338666-0.853333a33.9968 33.9968 0 0 1-25.941334-40.618667c1.877333-8.874667 2.901333-17.92 2.901334-27.136 0-69.12-56.149333-125.269333-125.269334-125.269333s-125.269333 56.149333-125.269333 125.269333c0 9.216 1.024 18.261333 2.901333 27.136 4.096 18.432-7.509333 36.693333-25.941333 40.618667-18.432 3.925333-36.693333-7.509333-40.618667-25.941333-3.072-13.653333-4.608-27.818667-4.608-41.813334 0-106.666667 86.869333-193.536 193.536-193.536s193.536 86.869333 193.536 193.536c0 14.165333-1.536 28.16-4.608 41.813334-3.413333 16.042667-17.578667 26.794667-33.28 26.794666zM508.245333 335.189333c-18.773333 0-34.133333-15.36-34.133333-34.133333v-32.768c0-18.773333 15.36-34.133333 34.133333-34.133333s34.133333 15.36 34.133334 34.133333v32.768a34.133333 34.133333 0 0 1-34.133334 34.133333zM309.248 417.621333c-8.704 0-17.408-3.413333-24.064-10.069333l-23.04-23.04c-13.312-13.312-13.312-34.986667 0-48.298667 13.312-13.312 34.986667-13.312 48.298667 0l23.04 23.04c13.312 13.312 13.312 34.986667 0 48.298667-6.826667 6.656-15.530667 10.069333-24.234667 10.069333zM226.816 616.618667h-32.768c-18.773333 0-34.133333-15.36-34.133333-34.133334s15.36-34.133333 34.133333-34.133333h32.768c18.773333 0 34.133333 15.36 34.133333 34.133333s-15.36 34.133333-34.133333 34.133334zM822.442667 616.618667h-32.597334c-18.773333 0-34.133333-15.36-34.133333-34.133334s15.36-34.133333 34.133333-34.133333h32.597334a34.133333 34.133333 0 1 1 0 68.266667zM707.413333 417.621333a34.2016 34.2016 0 0 1-24.064-58.368l23.04-23.04c13.312-13.312 34.986667-13.312 48.298667 0 13.312 13.312 13.312 34.986667 0 48.298667l-23.04 23.04c-6.826667 6.656-15.530667 10.069333-24.234667 10.069333z" fill="#EED441" p-id="14451"></path><path d="M754.688 789.845333H579.413333l-70.144-38.058666-70.314666 38.058666H261.802667c-18.773333 0-34.133333-15.36-34.133334-34.133333s15.36-34.133333 34.133334-34.133333h159.744l87.552-47.274667 87.552 47.274667h158.037333a34.133333 34.133333 0 1 1 0 68.266666z" fill="#666666" p-id="14452"></path></svg>