<?xml version="1.0" standalone="no"?><!DOCTYPE svg PUBLIC "-//W3C//DTD SVG 1.1//EN" "http://www.w3.org/Graphics/SVG/1.1/DTD/svg11.dtd"><svg t="1694906490168" class="icon" viewBox="0 0 1024 1024" version="1.1" xmlns="http://www.w3.org/2000/svg" p-id="14660" xmlns:xlink="http://www.w3.org/1999/xlink" width="12" height="12"><path d="M216.404234 501.669145a296.244733 295.508068 90 1 0 591.016135 0 296.244733 295.508068 90 1 0-591.016135 0Z" fill="#FECA39" p-id="14661"></path><path d="M531.135761 148.104827h-38.587236a5.332054 5.332054 0 0 1-5.332054-5.332055v-137.440718a5.332054 5.332054 0 0 1 5.332054-5.332054h38.587236a5.332054 5.332054 0 0 1 5.332054 5.332054v137.475798a5.332054 5.332054 0 0 1-5.332054 5.296975zM328.20198 197.671885a24.555514 24.555514 0 0 1-33.641054-9.050461l-49.111027-85.523346a24.73091 24.73091 0 0 1 9.015381-33.711212 24.555514 24.555514 0 0 1 33.641054 9.050461l49.111028 85.523346a24.555514 24.555514 0 0 1-9.015382 33.711212zM193.953479 332.586893a24.555514 24.555514 0 0 1-33.641054 9.050461l-85.31287-49.356583a24.555514 24.555514 0 0 1-9.015382-33.711212 24.555514 24.555514 0 0 1 33.641054-9.050461l85.31287 49.356583a24.555514 24.555514 0 0 1 9.015382 33.711212zM147.789113 496.477407v38.587236a5.332054 5.332054 0 0 1-5.332054 5.332055h-137.089925a5.332054 5.332054 0 0 1-5.332055-5.332055v-38.587236a5.332054 5.332054 0 0 1 5.332055-5.332054h137.089925a5.332054 5.332054 0 0 1 5.332054 5.332054zM199.180295 697.657223a24.73091 24.73091 0 0 1-9.015381 33.711212l-85.312871 49.356583a24.555514 24.555514 0 0 1-33.641053-9.050461 24.73091 24.73091 0 0 1 9.015381-33.711212l85.312871-49.356583a24.555514 24.555514 0 0 1 33.641053 9.050461zM334.375938 829.309856a24.555514 24.555514 0 0 1 9.015381 33.711212l-49.111027 85.523346a24.555514 24.555514 0 0 1-33.641054 9.050461 24.555514 24.555514 0 0 1-9.015381-33.711212l49.111027-85.523346a24.555514 24.555514 0 0 1 33.641054-9.050461zM497.8455 875.579459h38.587236a5.332054 5.332054 0 0 1 5.332055 5.332055v137.475797a5.332054 5.332054 0 0 1-5.332055 5.332055h-38.587236a5.332054 5.332054 0 0 1-5.332054-5.332055v-137.475797a5.332054 5.332054 0 0 1 5.332054-5.332055zM698.499126 824.04796a24.555514 24.555514 0 0 1 33.641054 9.050461l49.111028 85.523346a24.555514 24.555514 0 0 1-9.015382 33.711212 24.555514 24.555514 0 0 1-33.641054-9.05046l-49.111027-85.523347a24.73091 24.73091 0 0 1 9.015381-33.711212zM829.695728 688.501524a24.555514 24.555514 0 0 1 33.641054-9.015381l85.31287 49.356582a24.555514 24.555514 0 0 1 9.015382 33.711213 24.555514 24.555514 0 0 1-33.641054 9.015381l-85.31287-49.356582a24.555514 24.555514 0 0 1-9.015382-33.711213zM876.000411 524.821486v-38.587236a5.332054 5.332054 0 0 1 5.332054-5.332054h137.089925a5.332054 5.332054 0 0 1 5.332055 5.332054v38.587236a5.332054 5.332054 0 0 1-5.332055 5.332054h-137.089925a5.332054 5.332054 0 0 1-5.332054-5.332054zM821.767805 324.448494a24.73091 24.73091 0 0 1 9.015382-33.711212l85.31287-49.356582a24.555514 24.555514 0 0 1 33.641054 9.015381 24.73091 24.73091 0 0 1-9.015382 33.711212l-85.31287 49.356583a24.555514 24.555514 0 0 1-33.641054-9.015382zM684.537563 195.005858a24.555514 24.555514 0 0 1-9.015382-33.711212l49.111028-85.523347a24.555514 24.555514 0 0 1 33.641054-9.05046 24.555514 24.555514 0 0 1 9.015381 33.711212l-49.111027 85.523346a24.555514 24.555514 0 0 1-33.641054 9.050461z" fill="#FECA39" p-id="14662"></path></svg>